<?xml version="1.0" standalone="no"?>
<!DOCTYPE svg PUBLIC "-//W3C//DTD SVG 20010904//EN"
 "http://www.w3.org/TR/2001/REC-SVG-20010904/DTD/svg10.dtd">
<svg version="1.0" xmlns="http://www.w3.org/2000/svg"
 width="360.000000pt" height="360.000000pt" viewBox="0 0 360.000000 360.000000"
 preserveAspectRatio="xMidYMid meet">
<metadata>
Created by potrace 1.14, written by Peter Selinger 2001-2017
</metadata>
<g transform="translate(0.000000,360.000000) scale(0.100000,-0.100000)"
fill="#000000" stroke="none">
<path d="M1575 3136 c-380 -73 -692 -274 -895 -578 -100 -149 -153 -268 -198
-447 -25 -99 -27 -120 -26 -316 0 -201 2 -215 31 -325 131 -492 490 -851 983
-983 111 -30 123 -31 325 -31 196 -1 217 1 316 26 179 45 298 98 447 198 280
187 478 475 563 820 21 85 24 117 23 305 0 201 -2 215 -31 325 -131 492 -494
855 -983 982 -103 27 -134 31 -300 34 -127 2 -207 -1 -255 -10z m-735 -834 c5
-156 11 -178 47 -165 10 4 13 39 13 153 0 118 3 150 15 160 8 7 22 10 30 6 12
-4 15 -30 15 -150 0 -116 3 -148 15 -160 9 -8 22 -13 30 -10 12 5 15 36 17
156 3 133 5 152 21 162 37 22 44 -11 40 -176 -3 -84 -9 -165 -15 -180 -5 -14
-25 -40 -44 -57 l-34 -31 0 -415 c0 -402 -1 -416 -20 -435 -24 -24 -38 -25
-68 -4 l-22 15 0 420 0 420 -34 32 c-19 18 -39 42 -45 54 -6 11 -14 91 -17
177 -7 162 -2 191 35 184 14 -3 17 -27 21 -156z m1950 123 l25 -25 0 -611 0
-611 -24 -19 c-30 -24 -46 -24 -71 1 -19 19 -20 33 -20 321 l0 300 -35 33 -35
33 0 274 c0 236 2 278 16 297 33 48 100 51 144 7z m-815 -57 c87 -25 124 -44
202 -103 113 -85 197 -220 227 -368 20 -94 20 -152 1 -242 -43 -204 -201 -386
-397 -455 -323 -113 -676 57 -789 380 -31 89 -38 258 -14 349 50 196 202 363
390 430 119 43 253 46 380 9z"/>
<path d="M1650 2291 c-220 -71 -364 -255 -377 -482 -10 -155 42 -293 150 -401
106 -106 229 -158 372 -158 303 0 536 229 535 527 0 48 -5 108 -11 133 -40
175 -202 337 -384 385 -80 20 -215 19 -285 -4z m290 -48 c232 -63 385 -316
336 -554 -20 -96 -56 -166 -117 -233 -180 -197 -475 -214 -678 -39 -176 150
-212 428 -83 629 115 178 328 256 542 197z"/>
<path d="M1673 1923 c-35 -7 -73 -59 -73 -100 0 -65 45 -128 154 -217 l46 -38
57 43 c67 52 127 125 143 174 14 43 -1 97 -33 120 -31 21 -94 19 -133 -6 -34
-20 -34 -20 -61 -1 -32 22 -68 31 -100 25z"/>
</g>
</svg>
